<svg width="24" height="24" viewBox="0 0 24 24" fill="none" xmlns="http://www.w3.org/2000/svg">
<g clip-path="url(#clip0_158_80)">
<path d="M12.4 6.40002H1.2C0.979089 6.40002 0.800003 6.57911 0.800003 6.80002V7.20002C0.800003 7.42094 0.979089 7.60002 1.2 7.60002H12.4C12.6209 7.60002 12.8 7.42094 12.8 7.20002V6.80002C12.8 6.57911 12.6209 6.40002 12.4 6.40002Z" fill="#C32228"/>
<path d="M11.4632 5.02119C11.4302 4.95458 11.3792 4.89855 11.316 4.85945C11.2528 4.82035 11.1799 4.79975 11.1056 4.79999H2.4944C2.42008 4.79975 2.34717 4.82035 2.28396 4.85945C2.22076 4.89855 2.16977 4.95458 2.1368 5.02119L1.8472 5.59999H11.7528L11.4632 5.02119Z" fill="#C32228"/>
<path d="M3.512 23.2H9.0904C8.74814 22.9008 8.47379 22.5318 8.28573 22.1179C8.09767 21.704 8.00025 21.2547 8 20.8V20.4C8.0006 20.2253 8.0396 20.0528 8.11425 19.8948C8.18891 19.7367 8.29738 19.5971 8.432 19.4856C8.15367 19.1911 7.99903 18.801 8 18.3958C8.00097 17.9906 8.15747 17.6012 8.4372 17.308C8.31499 17.2099 8.21371 17.0883 8.13937 16.9503C8.06503 16.8123 8.01913 16.6609 8.0044 16.5048C7.99055 16.3411 8.01089 16.1763 8.06412 16.0209C8.11735 15.8655 8.2023 15.7229 8.3136 15.602C8.11278 15.3831 8.00094 15.0971 8 14.8C8.00198 13.655 8.38156 12.5426 9.07992 11.6351C9.77828 10.7277 10.7564 10.0759 11.8628 9.78082L11.9684 8.40002H1.632L2.7148 22.4612C2.73102 22.6618 2.82193 22.849 2.96955 22.9858C3.11716 23.1226 3.31074 23.1991 3.512 23.2Z" fill="#C32228"/>
<path d="M23.2 20.4C23.2 20.2939 23.1579 20.1922 23.0828 20.1172C23.0078 20.0421 22.9061 20 22.8 20H9.2C9.09392 20 8.99217 20.0421 8.91716 20.1172C8.84215 20.1922 8.8 20.2939 8.8 20.4V20.8C8.80064 21.4363 9.0537 22.0464 9.50365 22.4964C9.9536 22.9463 10.5637 23.1994 11.2 23.2H20.8C21.4363 23.1994 22.0464 22.9463 22.4964 22.4964C22.9463 22.0464 23.1994 21.4363 23.2 20.8V20.4Z" fill="#C32228"/>
<path d="M7.2 4.00001V1.84001C7.19996 1.75314 7.17164 1.66864 7.11932 1.59929C7.067 1.52993 6.99353 1.4795 6.91 1.45561L4.64 0.806011C4.60193 0.795681 4.56133 0.800597 4.52683 0.819717C4.49232 0.838837 4.46663 0.870653 4.4552 0.908411L4.3176 1.39041C4.30686 1.42855 4.31164 1.46938 4.3309 1.50401C4.35016 1.53863 4.38233 1.56423 4.4204 1.57521L6.112 2.05841C6.19515 2.08266 6.26819 2.13325 6.32012 2.20257C6.37206 2.27189 6.40009 2.35619 6.4 2.44281V4.00001H7.2Z" fill="#C32228"/>
<path d="M22.4 17.6H21.1672C21.0202 17.6002 20.8775 17.6501 20.7624 17.7416L19.7016 18.5888C19.5311 18.7258 19.3189 18.8005 19.1002 18.8005C18.8815 18.8005 18.6693 18.7258 18.4988 18.5888L17.4376 17.7412C17.3224 17.6499 17.1798 17.6001 17.0328 17.6H9.6C9.38783 17.6 9.18435 17.6843 9.03432 17.8343C8.88429 17.9843 8.8 18.1878 8.8 18.4C8.8 18.6121 8.88429 18.8156 9.03432 18.9657C9.18435 19.1157 9.38783 19.2 9.6 19.2H22.4C22.6122 19.2 22.8157 19.1157 22.9657 18.9657C23.1157 18.8156 23.2 18.6121 23.2 18.4C23.2 18.1878 23.1157 17.9843 22.9657 17.8343C22.8157 17.6843 22.6122 17.6 22.4 17.6Z" fill="#C32228"/>
<path d="M18.8 10.4H13.2C12.0335 10.4014 10.9151 10.8654 10.0903 11.6903C9.26539 12.5151 8.80138 13.6335 8.8 14.8C8.8 14.9061 8.84215 15.0079 8.91716 15.0829C8.99217 15.1579 9.09392 15.2 9.2 15.2H22.8C22.9061 15.2 23.0078 15.1579 23.0828 15.0829C23.1579 15.0079 23.2 14.9061 23.2 14.8C23.1986 13.6335 22.7346 12.5151 21.9098 11.6903C21.0849 10.8654 19.9665 10.4014 18.8 10.4ZM13.2 13.6H12.8C12.6939 13.6 12.5922 13.5579 12.5172 13.4829C12.4421 13.4079 12.4 13.3061 12.4 13.2C12.4 13.0939 12.4421 12.9922 12.5172 12.9172C12.5922 12.8422 12.6939 12.8 12.8 12.8H13.2C13.3061 12.8 13.4078 12.8422 13.4828 12.9172C13.5579 12.9922 13.6 13.0939 13.6 13.2C13.6 13.3061 13.5579 13.4079 13.4828 13.4829C13.4078 13.5579 13.3061 13.6 13.2 13.6ZM14.4 12H14C13.8939 12 13.7922 11.9579 13.7172 11.8829C13.6421 11.8079 13.6 11.7061 13.6 11.6C13.6 11.4939 13.6421 11.3922 13.7172 11.3172C13.7922 11.2422 13.8939 11.2 14 11.2H14.4C14.5061 11.2 14.6078 11.2422 14.6828 11.3172C14.7579 11.3922 14.8 11.4939 14.8 11.6C14.8 11.7061 14.7579 11.8079 14.6828 11.8829C14.6078 11.9579 14.5061 12 14.4 12ZM16.8 13.2H16.4C16.2939 13.2 16.1922 13.1579 16.1172 13.0829C16.0421 13.0079 16 12.9061 16 12.8C16 12.6939 16.0421 12.5922 16.1172 12.5172C16.1922 12.4422 16.2939 12.4 16.4 12.4H16.8C16.9061 12.4 17.0078 12.4422 17.0828 12.5172C17.1579 12.5922 17.2 12.6939 17.2 12.8C17.2 12.9061 17.1579 13.0079 17.0828 13.0829C17.0078 13.1579 16.9061 13.2 16.8 13.2Z" fill="#C32228"/>
<path d="M9.2 16C9.1484 15.9996 9.09725 16.0096 9.04957 16.0293C9.00189 16.049 8.95865 16.0781 8.9224 16.1148C8.8792 16.1559 8.84594 16.2063 8.82514 16.2621C8.80435 16.318 8.79657 16.3779 8.8024 16.4372C8.81937 16.5411 8.87366 16.6353 8.9551 16.7021C9.03654 16.7689 9.13954 16.8037 9.2448 16.8H17.0328C17.3613 16.8005 17.6799 16.9121 17.9368 17.1168L18.9976 17.9636C19.0267 17.9869 19.0629 17.9995 19.1002 17.9995C19.1375 17.9995 19.1737 17.9869 19.2028 17.9636L20.2632 17.1172C20.5201 16.9124 20.8387 16.8006 21.1672 16.8H22.8C22.8515 16.8005 22.9027 16.7905 22.9503 16.7708C22.9979 16.7511 23.0411 16.722 23.0772 16.6852C23.1201 16.6444 23.1532 16.5944 23.174 16.539C23.1947 16.4835 23.2027 16.4241 23.1972 16.3652C23.1807 16.2609 23.1267 16.1662 23.0453 16.099C22.9639 16.0318 22.8607 15.9965 22.7552 16H9.2Z" fill="#C32228"/>
</g>
<defs>
<clipPath id="clip0_158_80">
<rect width="24" height="24" fill="white"/>
</clipPath>
</defs>
</svg>
