<svg width="24" height="24" viewBox="0 0 24 24" fill="none" xmlns="http://www.w3.org/2000/svg">
<g clip-path="url(#clip0_158_74)">
<path d="M8.43225 1.47193L9.69444 4.6374L10.3671 4.36888L9.10506 1.20381C8.81715 0.474625 8.11119 -0.00321645 7.32725 1.63015e-05H4.03449C3.83446 1.63015e-05 3.67242 0.162058 3.67242 0.362085C3.67242 0.562112 3.83446 0.724154 4.03449 0.724154H7.32725C7.81459 0.721729 8.25323 1.01874 8.43225 1.47193Z" fill="#C32228"/>
<path d="M7.57759 15.3124C7.57375 17.0797 9.00445 18.5152 10.772 18.5172H14.2627C16.03 18.5152 17.4607 17.0797 17.4569 15.3124V9.67242H7.57759V15.3124Z" fill="#C32228"/>
<path d="M7.57759 4.86206H17.4569V8.94826H7.57759V4.86206Z" fill="#C32228"/>
<path d="M17.8244 1.94489C16.5521 1.94428 15.4728 2.87875 15.2911 4.13791H17.8317C17.9266 4.13892 18.0172 4.17832 18.0828 4.24681C18.1487 4.31551 18.1841 4.40764 18.181 4.5026V7.04557C19.5097 6.85342 20.4654 5.66882 20.3716 4.32965C20.2781 2.99028 19.167 1.95014 17.8244 1.94489Z" fill="#C32228"/>
<path d="M15.805 23.2759H12.9569V19.2414H11.6121V23.2759H9.23599C9.03597 23.2759 8.87392 23.4379 8.87392 23.6379C8.87392 23.838 9.03597 24 9.23599 24H15.805C16.0048 24 16.167 23.838 16.167 23.6379C16.167 23.4379 16.0048 23.2759 15.805 23.2759Z" fill="#C32228"/>
</g>
<defs>
<clipPath id="clip0_158_74">
<rect width="24" height="24" fill="white"/>
</clipPath>
</defs>
</svg>
