<svg width="24" height="24" viewBox="0 0 24 24" fill="none" xmlns="http://www.w3.org/2000/svg">
<path fill-rule="evenodd" clip-rule="evenodd" d="M12 2.25464C6.61522 2.25464 2.25 6.61986 2.25 12.0046C2.25 17.3894 6.61522 21.7546 12 21.7546C17.3848 21.7546 21.75 17.3894 21.75 12.0046C21.75 6.61986 17.3848 2.25464 12 2.25464ZM12.75 6.00464C12.75 5.59043 12.4142 5.25464 12 5.25464C11.5858 5.25464 11.25 5.59043 11.25 6.00464V12.0046C11.25 12.4189 11.5858 12.7546 12 12.7546H16.5C16.9142 12.7546 17.25 12.4189 17.25 12.0046C17.25 11.5904 16.9142 11.2546 16.5 11.2546H12.75V6.00464Z" fill="black"/>
</svg>
