<svg width="24" height="24" viewBox="0 0 24 24" fill="none" xmlns="http://www.w3.org/2000/svg">
<path d="M12 7.5H2.5L2.90531 5.87873C2.93236 5.77055 2.99479 5.67452 3.08268 5.6059C3.17057 5.53727 3.27888 5.5 3.39039 5.5H11.1096C11.2211 5.5 11.3294 5.53727 11.4173 5.6059C11.5052 5.67452 11.5676 5.77055 11.5947 5.87873L12 7.5Z" fill="#C32228"/>
<path d="M12.6401 10H1.8599C1.78593 10 1.71287 9.98359 1.64601 9.95194C1.57914 9.92029 1.52013 9.8742 1.47323 9.81699C1.42633 9.75978 1.39271 9.69288 1.37479 9.62111C1.35687 9.54933 1.3551 9.47448 1.36961 9.40194L1.66961 7.90194C1.69228 7.7886 1.75352 7.68661 1.84291 7.61333C1.9323 7.54005 2.04431 7.5 2.1599 7.5H12.3401C12.4557 7.5 12.5677 7.54005 12.6571 7.61333C12.7465 7.68661 12.8077 7.7886 12.8304 7.90194L13.1304 9.40194C13.1449 9.47448 13.1431 9.54933 13.1252 9.62111C13.1073 9.69288 13.0737 9.75978 13.0268 9.81699C12.9799 9.8742 12.9209 9.92029 12.854 9.95194C12.7871 9.98359 12.7141 10 12.6401 10Z" fill="#C32228"/>
<path d="M11.9551 10.5H2.54505C2.47583 10.4996 2.4073 10.5137 2.34381 10.5412C2.28031 10.5687 2.22323 10.6092 2.17621 10.66C2.12919 10.7108 2.09324 10.7708 2.07066 10.8362C2.04808 10.9016 2.03936 10.971 2.04505 11.04L2.92505 21.585C2.94567 21.8346 3.05947 22.0673 3.24383 22.2369C3.42818 22.4064 3.66959 22.5003 3.92005 22.5H10.5801C10.8305 22.5003 11.0719 22.4063 11.2562 22.2368C11.4406 22.0673 11.5543 21.8346 11.575 21.585L12.4551 11.04C12.4607 10.971 12.452 10.9016 12.4294 10.8362C12.4068 10.7708 12.3709 10.7108 12.3239 10.66C12.2769 10.6092 12.2198 10.5688 12.1563 10.5412C12.0928 10.5137 12.0243 10.4997 11.9551 10.5ZM7.25 18.25C6.80499 18.25 6.36998 18.118 5.99997 17.8708C5.62996 17.6236 5.34157 17.2722 5.17127 16.861C5.00097 16.4499 4.95642 15.9975 5.04323 15.5611C5.13005 15.1246 5.34434 14.7237 5.65901 14.409C5.97368 14.0943 6.37459 13.8801 6.81105 13.7932C7.2475 13.7064 7.6999 13.751 8.11104 13.9213C8.52217 14.0916 8.87357 14.38 9.12081 14.75C9.36804 15.12 9.5 15.555 9.5 16C9.5004 16.2956 9.44247 16.5884 9.32953 16.8615C9.2166 17.1347 9.05088 17.3829 8.84187 17.5919C8.63286 17.8009 8.38467 17.9666 8.11151 18.0795C7.83834 18.1925 7.54559 18.2504 7.25 18.25Z" fill="#C32228"/>
<path d="M7 6.5C6.91915 6.50008 6.8395 6.48055 6.76786 6.44308C6.69622 6.40562 6.63474 6.35133 6.5887 6.28488C6.54265 6.21842 6.51342 6.1418 6.50349 6.06156C6.49357 5.98133 6.50327 5.89988 6.53174 5.82422L8.03174 1.82422C8.06756 1.72897 8.13158 1.64692 8.21524 1.58899C8.2989 1.53106 8.39824 1.50002 8.5 1.5H10.5C10.6326 1.5 10.7598 1.55268 10.8536 1.64645C10.9473 1.74021 11 1.86739 11 2C11 2.13261 10.9473 2.25979 10.8536 2.35355C10.7598 2.44732 10.6326 2.5 10.5 2.5H8.84668L7.46826 6.17578C7.43246 6.27104 7.36846 6.35312 7.28479 6.41105C7.20112 6.46898 7.10177 6.50001 7 6.5Z" fill="#C32228"/>
<path d="M22.0455 20.5045V21.1364C22.0457 21.3155 22.0106 21.4929 21.9422 21.6585C21.8737 21.8241 21.7733 21.9745 21.6466 22.1012C21.5199 22.2278 21.3695 22.3283 21.204 22.3967C21.0384 22.4651 20.861 22.5002 20.6818 22.5H14.3182C14.139 22.5002 13.9616 22.4651 13.7961 22.3967C13.6305 22.3282 13.4801 22.2278 13.3534 22.1011C13.2267 21.9745 13.1263 21.824 13.0579 21.6585C12.9894 21.4929 12.9543 21.3155 12.9545 21.1364V20.5091C13.1348 20.611 13.3384 20.6642 13.5455 20.6636C13.7085 20.6642 13.87 20.6323 14.0206 20.5699C14.1712 20.5074 14.3079 20.4157 14.4227 20.3C14.5136 20.2046 14.5819 20.1273 14.6409 20.0591C14.6767 20.0178 14.7146 19.9783 14.7545 19.9409C14.8575 20.0001 14.9549 20.0686 15.0455 20.1455C15.3729 20.4608 15.801 20.6507 16.2546 20.6818C16.4497 20.6772 16.6412 20.6281 16.8145 20.5383C16.9877 20.4485 17.1383 20.3204 17.2546 20.1636C17.4137 19.9818 17.4592 19.9455 17.5773 19.9455C17.6909 19.9455 17.7409 19.9864 17.9 20.1636C18.0159 20.3208 18.1663 20.4493 18.3397 20.5391C18.5131 20.629 18.7048 20.6778 18.9001 20.6818C19.2694 20.6652 19.6173 20.5035 19.8682 20.2318C19.9882 20.1129 20.1283 20.0159 20.2819 19.9455C20.3001 19.9682 20.3182 19.9909 20.3409 20.0182C20.4046 20.0909 20.4773 20.1773 20.5682 20.2727C20.6823 20.3944 20.8204 20.4911 20.9737 20.5568C21.127 20.6226 21.2923 20.6558 21.4591 20.6546C21.6642 20.6561 21.8663 20.6044 22.0455 20.5045Z" fill="#C32228"/>
<path d="M22.1429 19.7759C22.0878 19.8863 22.007 19.9818 21.9073 20.0544C21.8075 20.127 21.6918 20.1745 21.5698 20.1929C21.4479 20.2114 21.3233 20.2002 21.2065 20.1604C21.0898 20.1205 20.9843 20.0532 20.8991 19.9641C20.5402 19.5802 20.5058 19.4097 20.2221 19.4894C19.6034 19.6631 19.4442 20.2273 18.8993 20.2273C18.2377 20.2273 18.2377 19.4894 17.576 19.4894C16.9144 19.4894 16.9144 20.2273 16.2528 20.2273C15.5911 20.2273 15.1833 19.5004 14.7814 19.4894C14.4728 19.4809 14.4478 19.6211 14.0971 19.9808C14.0114 20.068 13.9061 20.1335 13.79 20.1719C13.6739 20.2102 13.5504 20.2203 13.4296 20.2014C13.3088 20.1824 13.1943 20.1349 13.0955 20.0628C12.9968 19.9907 12.9167 19.8961 12.8618 19.7868C12.7755 19.594 12.7275 19.3862 12.7205 19.175C12.6832 18.9879 12.6891 18.7947 12.7379 18.6102C12.7867 18.4257 12.8771 18.2548 13.0021 18.1106C13.2216 17.9096 13.5104 17.8013 13.808 17.8084H21.192C21.4896 17.8013 21.7784 17.9096 21.9979 18.1106C22.1229 18.2548 22.2133 18.4257 22.2621 18.6102C22.3109 18.7947 22.3169 18.9879 22.2795 19.175C22.2727 19.3822 22.2263 19.5862 22.1429 19.7759Z" fill="#C32228"/>
<path d="M22.0455 17.3539H12.9545C12.834 17.3539 12.7184 17.306 12.6331 17.2207C12.5479 17.1355 12.5 17.0199 12.5 16.8993V16.623C12.5 16.3979 12.5418 16.1748 12.6233 15.965L12.6706 15.843C12.9359 15.1596 13.4016 14.5724 14.0065 14.1583C14.6114 13.7443 15.3274 13.5227 16.0605 13.5227H18.9395C19.6726 13.5227 20.3886 13.7443 20.9935 14.1583C21.5984 14.5724 22.0641 15.1596 22.3294 15.843L22.3767 15.965C22.4582 16.1748 22.5 16.3979 22.5 16.623V16.8993C22.5 16.959 22.4882 17.0181 22.4654 17.0733C22.4426 17.1284 22.4091 17.1785 22.3669 17.2207C22.3247 17.2629 22.2746 17.2964 22.2194 17.3193C22.1643 17.3421 22.1051 17.3539 22.0455 17.3539Z" fill="#C32228"/>
<path d="M18.75 2.5C18.0083 2.5 17.2833 2.71993 16.6666 3.13199C16.0499 3.54404 15.5693 4.12971 15.2855 4.81494C15.0016 5.50016 14.9274 6.25416 15.0721 6.98159C15.2168 7.70902 15.5739 8.3772 16.0984 8.90165C16.6228 9.4261 17.291 9.78325 18.0184 9.92795C18.7458 10.0726 19.4998 9.99838 20.1851 9.71455C20.8703 9.43072 21.456 8.95007 21.868 8.33339C22.2801 7.7167 22.5 6.99168 22.5 6.25C22.4989 5.25577 22.1035 4.30257 21.4005 3.59955C20.6974 2.89652 19.7442 2.50109 18.75 2.5ZM20.4033 5.69336L18.5835 7.51367C18.5371 7.56011 18.482 7.59695 18.4213 7.62208C18.3607 7.64722 18.2956 7.66015 18.23 7.66015C18.1643 7.66015 18.0993 7.64722 18.0387 7.62208C17.978 7.59695 17.9229 7.56011 17.8765 7.51367L17.0967 6.7334C17.0029 6.63964 16.9502 6.51248 16.9502 6.37988C16.9502 6.24729 17.0029 6.12013 17.0967 6.02637C17.1904 5.93261 17.3176 5.87994 17.4502 5.87994C17.5828 5.87993 17.71 5.93261 17.8037 6.02636L18.23 6.45312L19.6963 4.98633C19.79 4.89257 19.9172 4.8399 20.0498 4.8399C20.1824 4.8399 20.3096 4.89257 20.4033 4.98633C20.4971 5.08009 20.5498 5.20725 20.5498 5.33985C20.5498 5.47244 20.4971 5.5996 20.4033 5.69336Z" fill="#C32228"/>
</svg>
