<svg width="24" height="24" viewBox="0 0 24 24" fill="none" xmlns="http://www.w3.org/2000/svg">
<path d="M13.4042 15.8903H10.996L11.288 23.0952H13.1122L13.4042 15.8903Z" fill="#C32228"/>
<path d="M4.57914 15.8903L6.03894 23.0952H7.85263L6.97692 15.8903H4.57914Z" fill="#C32228"/>
<path d="M7.78676 15.8903L8.66247 23.0952H10.4838L10.1918 15.8903H7.78676Z" fill="#C32228"/>
<path d="M13.916 23.0952H15.7377L16.6138 15.8903H14.208L13.916 23.0952Z" fill="#C32228"/>
<path d="M19.8206 15.8903H17.4233L16.5475 23.0952H18.3612L19.8206 15.8903Z" fill="#C32228"/>
<path d="M4.08786 15.0868H4.44739C4.82218 14.3859 6.22333 12.6943 11.1526 12.1211C11.3756 12.0945 11.5728 12.2536 11.5977 12.4738C11.623 12.6939 11.4656 12.8935 11.245 12.9188C7.45736 13.3591 5.97507 14.4453 5.4171 15.0864H20.3119C20.4236 15.0844 20.8823 14.9302 21.2893 14.4759C21.6392 14.0854 22.0328 13.368 21.9224 12.1677C21.7725 10.5379 20.755 9.7265 20.1934 9.3979C19.5226 11.0939 17.7414 11.9869 16.1579 12.2428C16.1362 12.2464 16.1149 12.248 16.0936 12.248C15.9 12.248 15.7293 12.1078 15.6975 11.9106C15.6622 11.6916 15.8108 11.4852 16.0301 11.4498C17.8053 11.163 19.6937 10.07 19.6692 7.86419C19.6527 6.38954 18.2387 5.7693 17.492 5.54395C17.4594 5.9107 17.3518 6.24773 17.1485 6.54299C16.5749 7.37532 15.5284 7.57256 15.4838 7.58059C15.4593 7.58501 15.4356 7.58702 15.4119 7.58702C15.2211 7.58702 15.052 7.45084 15.017 7.25682C14.9777 7.03829 15.1231 6.8294 15.3412 6.79004C15.5051 6.7591 16.9497 6.44216 16.6713 4.95866C16.3692 3.32292 14.3976 3.05458 14.3775 3.05177C14.2659 3.03731 14.1654 2.97705 14.1004 2.88506C14.0353 2.79307 14.0116 2.67778 14.0357 2.56772C14.1321 2.12504 13.1945 1.29873 12.3393 0.75C11.9874 1.24611 11.1759 2.10575 9.48356 2.78022C8.03743 3.35506 7.31195 4.2139 7.23361 5.45718C7.53931 5.36358 7.87032 5.28404 8.23988 5.22098C10.7891 4.802 11.9034 3.68968 11.9143 3.67883C12.0697 3.52096 12.324 3.51775 12.4815 3.6708C12.6406 3.82465 12.6454 4.07732 12.4923 4.2364C12.4409 4.28982 11.2057 5.54756 8.37205 6.01314C7.83376 6.10473 7.38144 6.22926 6.99179 6.39355C5.81961 6.86596 5.10136 7.64205 4.79526 8.74473C5.02062 8.65796 5.16885 8.61619 5.19135 8.61016C5.40706 8.55272 5.62559 8.67885 5.68384 8.89216C5.74248 9.10586 5.61595 9.3268 5.40264 9.38545C5.38296 9.39067 3.44795 9.939 2.53206 11.5759C2.22074 12.1323 2.08135 13.4732 2.57102 14.3087C2.87793 14.8318 3.37403 15.086 4.08826 15.086L4.08786 15.0868ZM7.79319 8.04135C10.7758 7.86982 13.352 7.07043 13.3773 7.06239C13.5894 6.99531 13.8147 7.11381 13.881 7.32551C13.9473 7.53721 13.8296 7.76256 13.6183 7.82884C13.5095 7.86299 10.9257 8.6656 7.83938 8.84315C7.83135 8.84315 7.82372 8.84355 7.81568 8.84355C7.60439 8.84355 7.42724 8.67845 7.41518 8.46515C7.40233 8.24381 7.57185 8.0538 7.79279 8.04094L7.79319 8.04135Z" fill="#C32228"/>
</svg>
