<svg width="85" height="32" viewBox="0 0 85 32" fill="none" xmlns="http://www.w3.org/2000/svg">
<path d="M24.5972 14.309V2.52283H27.8611L32.5755 10.2173H30.8569L35.4373 2.52283H38.7012L38.7327 14.309H35.1141L35.0825 7.97836H35.6581L32.5203 13.2526H30.7702L27.5063 7.98624H28.2158V14.3169H24.5972V14.309Z" fill="white"/>
<path d="M46.2932 14.577C44.4878 14.577 43.0766 14.0882 42.0675 13.1107C41.0584 12.1331 40.5538 10.7613 40.5538 9.00324V2.52283H44.5272V8.88499C44.5272 9.78373 44.6928 10.4223 45.016 10.7928C45.3393 11.1713 45.7807 11.3605 46.3326 11.3605C46.8923 11.3605 47.3338 11.1713 47.6571 10.7928C47.9803 10.4144 48.138 9.78373 48.138 8.88499V2.52283H52.0404V9.00324C52.0404 10.7692 51.5359 12.1331 50.5267 13.1107C49.5097 14.0882 48.0986 14.577 46.2932 14.577Z" fill="white"/>
<path d="M53.8537 14.309V2.52283H59.5299C60.6336 2.52283 61.5797 2.70415 62.3838 3.05892C63.188 3.42157 63.8029 3.93401 64.2444 4.59625C64.6859 5.26636 64.8987 6.05473 64.8987 6.96136C64.8987 7.86799 64.678 8.65636 64.2444 9.31071C63.8108 9.96505 63.188 10.4696 62.3838 10.8165C61.5797 11.1634 60.6336 11.3368 59.5299 11.3368H56.0611L57.827 9.70489V14.3011H53.8537V14.309ZM57.827 10.1543L56.0611 8.34889H59.2776C59.8295 8.34889 60.2316 8.22275 60.4996 7.97836C60.7598 7.73396 60.8938 7.39496 60.8938 6.96924C60.8938 6.54352 60.7598 6.20452 60.4996 5.96013C60.2395 5.71573 59.8295 5.58959 59.2776 5.58959H56.0611L57.827 3.79211V10.1543ZM60.9096 14.309L58.0084 10.0202H62.2183L65.151 14.3169H60.9096V14.309Z" fill="white"/>
<path d="M66.3966 14.309V2.52283H69.6605L75.6521 9.69701H74.1384V2.52283H78.0094V14.309H74.7455L68.7539 7.1348H70.2675V14.309H66.3966Z" fill="white"/>
<path d="M79.9251 14.309V2.52283H83.8985V14.309H79.9251Z" fill="white"/>
<path d="M24.5972 31.724V19.7407H30.3602C31.4797 19.7407 32.4494 19.9221 33.2614 20.2847C34.0734 20.6474 34.7041 21.1756 35.1535 21.8536C35.595 22.5316 35.8236 23.3357 35.8236 24.2581C35.8236 25.1805 35.6029 25.9767 35.1535 26.6469C34.712 27.317 34.0813 27.8215 33.2614 28.1763C32.4415 28.5311 31.4797 28.7045 30.3602 28.7045H26.8362L28.6337 27.041V31.7161H24.5972V31.724ZM28.6337 27.4983L26.8362 25.6693H30.1079C30.6677 25.6693 31.0776 25.5431 31.3457 25.2909C31.6137 25.0386 31.7477 24.6996 31.7477 24.266C31.7477 23.8324 31.6137 23.4934 31.3457 23.2411C31.0776 22.9888 30.6598 22.8627 30.1079 22.8627H26.8362L28.6337 21.0337V27.4983ZM31.7635 31.724L28.8229 27.3564H33.1037L36.0838 31.724H31.7635Z" fill="white"/>
<path d="M41.3186 28.6809H47.3102V31.724H37.3452V19.7407H47.0815V22.7917H41.3186V28.6809ZM41.0426 24.195H46.3799V27.1041H41.0426V24.195Z" fill="white"/>
<path d="M53.3333 31.9999C52.3321 31.9999 51.3624 31.8896 50.4242 31.6609C49.4861 31.4323 48.7214 31.1327 48.1143 30.7701L49.4151 27.8294C49.9828 28.1606 50.6213 28.4286 51.323 28.6257C52.0246 28.8228 52.7026 28.9253 53.3649 28.9253C53.7512 28.9253 54.0586 28.9016 54.2794 28.8464C54.5001 28.7913 54.6657 28.7203 54.7682 28.6257C54.8707 28.5311 54.9258 28.4128 54.9258 28.2709C54.9258 28.0581 54.8076 27.8846 54.5632 27.7585C54.3267 27.6324 54.0035 27.5299 53.6093 27.4431C53.2151 27.3564 52.7815 27.2697 52.3163 27.1672C51.8512 27.0726 51.3782 26.9386 50.9052 26.7809C50.4321 26.6232 49.9985 26.4104 49.6043 26.1502C49.2102 25.89 48.8948 25.5432 48.6504 25.1174C48.4139 24.6917 48.2878 24.1556 48.2878 23.5171C48.2878 22.776 48.4927 22.098 48.9106 21.4909C49.3284 20.8839 49.9512 20.3951 50.779 20.0246C51.6068 19.6619 52.6396 19.4806 53.8694 19.4806C54.6815 19.4806 55.4777 19.5673 56.2661 19.7408C57.0544 19.9142 57.764 20.1744 58.3868 20.5291L57.1727 23.454C56.5814 23.1544 56.0059 22.9337 55.4541 22.7839C54.9022 22.6341 54.3582 22.5631 53.8379 22.5631C53.4516 22.5631 53.1441 22.5947 52.9155 22.6656C52.6869 22.7366 52.5213 22.8233 52.4267 22.9415C52.3321 23.0519 52.2848 23.1781 52.2848 23.32C52.2848 23.5249 52.4031 23.6905 52.6475 23.8088C52.884 23.927 53.2072 24.0295 53.6014 24.1083C53.9956 24.1872 54.4292 24.2739 54.9022 24.3685C55.3752 24.4631 55.8482 24.5892 56.3134 24.7469C56.7785 24.9046 57.2121 25.1174 57.6063 25.3776C58.0005 25.6378 58.3158 25.9847 58.5602 26.4025C58.7968 26.8282 58.9229 27.3485 58.9229 27.9792C58.9229 28.7124 58.7179 29.3825 58.3001 29.9896C57.8822 30.5966 57.2673 31.0933 56.4395 31.4638C55.6117 31.8107 54.579 31.9999 53.3333 31.9999Z" fill="white"/>
<path d="M62.5415 31.724V22.8785H59.0333V19.7487H70.0941V22.8785H66.5859V31.7319H62.5415V31.724Z" fill="white"/>
<path d="M77.2683 32C76.2828 32 75.3841 31.8423 74.5563 31.5348C73.7285 31.2273 73.0111 30.7937 72.404 30.2261C71.797 29.6585 71.3319 28.9963 70.9929 28.2315C70.6539 27.4668 70.4883 26.6311 70.4883 25.7324C70.4883 24.8179 70.6539 23.9822 70.9929 23.2254C71.3319 22.4685 71.797 21.8063 72.404 21.2387C73.0111 20.6711 73.7285 20.2374 74.5563 19.93C75.3841 19.6225 76.2828 19.4648 77.2525 19.4648C78.2301 19.4648 79.1367 19.6225 79.9566 19.93C80.7765 20.2374 81.494 20.6711 82.0931 21.2387C82.7002 21.8063 83.1653 22.4685 83.5043 23.2254C83.8433 23.9822 84.0089 24.8179 84.0089 25.7324C84.0089 26.6311 83.8433 27.4668 83.5043 28.2315C83.1653 28.9963 82.7002 29.6585 82.0931 30.2261C81.4861 30.7937 80.7765 31.2273 79.9566 31.5348C79.1288 31.8423 78.238 32 77.2683 32ZM77.2525 28.7282C77.6309 28.7282 77.9778 28.6573 78.3089 28.5232C78.6322 28.3892 78.916 28.1921 79.1683 27.932C79.4127 27.6718 79.6019 27.3643 79.7438 26.9938C79.8778 26.6233 79.9488 26.2054 79.9488 25.7324C79.9488 25.2673 79.8778 24.8415 79.7438 24.471C79.6098 24.1005 79.4127 23.7851 79.1683 23.5328C78.9239 23.2727 78.6401 23.0756 78.3089 22.9416C77.9857 22.8075 77.6309 22.7366 77.2525 22.7366C76.8741 22.7366 76.5272 22.8075 76.1961 22.9416C75.8729 23.0756 75.5891 23.2727 75.3368 23.5328C75.0924 23.793 74.9032 24.1005 74.7613 24.471C74.6272 24.8415 74.5563 25.2594 74.5563 25.7324C74.5563 26.1975 74.6272 26.6233 74.7613 26.9938C74.8953 27.3643 75.0924 27.6797 75.3368 27.932C75.5812 28.1921 75.865 28.3892 76.1961 28.5232C76.5193 28.6573 76.8741 28.7282 77.2525 28.7282Z" fill="white"/>
<path d="M7.04805 5.64471C3.02736 6.53557 0.0157776 10.1227 0.0157776 14.4193C0.0157776 15.8068 1.14315 16.9421 2.53857 16.9421H21.5699V2.53064C14.5455 2.54641 8.66421 3.87087 7.04805 5.64471ZM8.25426 11.5654C7.96256 11.8019 7.61568 11.8492 7.46589 11.6679C7.3161 11.4865 7.43435 11.1554 7.72605 10.9189C8.01775 10.6824 8.36463 10.6351 8.51442 10.8164C8.65633 10.9977 8.53807 11.3289 8.25426 11.5654ZM8.90861 9.87038C8.58538 10.1305 8.20696 10.1936 8.04928 10.0044C7.89949 9.81519 8.02563 9.45254 8.34886 9.19238C8.6721 8.93222 9.05051 8.86915 9.20819 9.05835C9.36586 9.23968 9.23184 9.61022 8.90861 9.87038ZM10.3907 10.8795C10.0754 11.1397 9.69698 11.187 9.53931 10.9977C9.38163 10.8007 9.50777 10.438 9.82312 10.1857C10.1385 9.92556 10.5248 9.87826 10.6824 10.0675C10.8401 10.2567 10.6982 10.6193 10.3907 10.8795ZM11.6521 8.67994C11.2264 9.02682 10.7061 9.09777 10.4932 8.82973C10.2804 8.56168 10.4459 8.07289 10.8717 7.72601C11.2974 7.37912 11.8177 7.30817 12.0306 7.57622C12.2434 7.83638 12.0779 8.33305 11.6521 8.67994ZM13.6152 9.49196C13.0791 9.83884 12.4799 9.86249 12.275 9.54715C12.07 9.2318 12.3301 8.68782 12.8662 8.34094C13.4023 7.99406 14.0015 7.9704 14.2065 8.28575C14.4114 8.6011 14.1434 9.14508 13.6152 9.49196Z" fill="white"/>
<path d="M1.34023 17.5728C0.599162 17.5728 0 18.1719 0 18.913V18.9366C0 19.6777 0.599162 20.2769 1.34023 20.2769H21.5698V17.5728H1.34023Z" fill="white"/>
<path d="M1.34811 20.9076C0.60704 20.9076 0.00787735 21.5068 0.00787735 22.2478V22.2715C0.00787735 23.0125 0.60704 23.6117 1.34811 23.6117H21.562V20.9076H1.34811Z" fill="white"/>
<path d="M21.5698 24.2424H1.17467C0.536086 24.2424 0.00787735 24.7628 0.00787735 25.4092V25.4802C0.00787735 28.9096 2.79083 31.6925 6.22025 31.6925H21.562V31.6452L21.5698 24.2424Z" fill="white"/>
</svg>
