<svg width="85" height="32" viewBox="0 0 85 32" fill="none" xmlns="http://www.w3.org/2000/svg">
<path d="M24.5972 14.309V2.5228H27.8611L32.5755 10.2173H30.8569L35.4373 2.5228H38.7012L38.7327 14.309H35.1141L35.0825 7.97833H35.6581L32.5203 13.2525H30.7702L27.5063 7.98621H28.2158V14.3168H24.5972V14.309Z" fill="#C12126"/>
<path d="M46.2932 14.577C44.4878 14.577 43.0766 14.0882 42.0675 13.1106C41.0584 12.133 40.5538 10.7613 40.5538 9.00321V2.5228H44.5272V8.88496C44.5272 9.7837 44.6928 10.4223 45.016 10.7928C45.3393 11.1712 45.7807 11.3604 46.3326 11.3604C46.8923 11.3604 47.3338 11.1712 47.6571 10.7928C47.9803 10.4144 48.138 9.7837 48.138 8.88496V2.5228H52.0404V9.00321C52.0404 10.7692 51.5359 12.133 50.5267 13.1106C49.5097 14.0882 48.0986 14.577 46.2932 14.577Z" fill="#C12126"/>
<path d="M53.8537 14.309V2.5228H59.5299C60.6336 2.5228 61.5797 2.70413 62.3838 3.05889C63.188 3.42154 63.8029 3.93398 64.2444 4.59622C64.6859 5.26633 64.8987 6.0547 64.8987 6.96133C64.8987 7.86796 64.678 8.65633 64.2444 9.31068C63.8108 9.96503 63.188 10.4696 62.3838 10.8165C61.5797 11.1634 60.6336 11.3368 59.5299 11.3368H56.0611L57.827 9.70486V14.3011H53.8537V14.309ZM57.827 10.1542L56.0611 8.34886H59.2776C59.8295 8.34886 60.2316 8.22273 60.4996 7.97833C60.7598 7.73394 60.8938 7.39493 60.8938 6.96921C60.8938 6.54349 60.7598 6.20449 60.4996 5.9601C60.2395 5.7157 59.8295 5.58956 59.2776 5.58956H56.0611L57.827 3.79208V10.1542ZM60.9096 14.309L58.0084 10.0202H62.2183L65.151 14.3168H60.9096V14.309Z" fill="#C12126"/>
<path d="M66.3966 14.309V2.5228H69.6605L75.6521 9.69698H74.1384V2.5228H78.0094V14.309H74.7455L68.7539 7.13477H70.2675V14.309H66.3966Z" fill="#C12126"/>
<path d="M79.9251 14.309V2.5228H83.8985V14.309H79.9251Z" fill="#C12126"/>
<path d="M24.5972 31.7241V19.7408H30.3602C31.4797 19.7408 32.4494 19.9221 33.2614 20.2848C34.0734 20.6475 34.7041 21.1757 35.1535 21.8537C35.595 22.5317 35.8236 23.3358 35.8236 24.2582C35.8236 25.1806 35.6029 25.9768 35.1535 26.647C34.712 27.3171 34.0813 27.8216 33.2614 28.1764C32.4415 28.5312 31.4797 28.7046 30.3602 28.7046H26.8362L28.6337 27.0411V31.7162H24.5972V31.7241ZM28.6337 27.4984L26.8362 25.6694H30.1079C30.6677 25.6694 31.0776 25.5432 31.3457 25.291C31.6137 25.0387 31.7477 24.6997 31.7477 24.2661C31.7477 23.8325 31.6137 23.4935 31.3457 23.2412C31.0776 22.9889 30.6598 22.8628 30.1079 22.8628H26.8362L28.6337 21.0338V27.4984ZM31.7635 31.7241L28.8229 27.3565H33.1037L36.0838 31.7241H31.7635Z" fill="#C12126"/>
<path d="M41.3186 28.681H47.3102V31.7241H37.3452V19.7408H47.0815V22.7918H41.3186V28.681ZM41.0426 24.1951H46.3799V27.1042H41.0426V24.1951Z" fill="#C12126"/>
<path d="M53.3333 32C52.3321 32 51.3624 31.8896 50.4242 31.661C49.4861 31.4324 48.7214 31.1328 48.1143 30.7701L49.4151 27.8295C49.9828 28.1606 50.6213 28.4287 51.323 28.6258C52.0246 28.8229 52.7026 28.9254 53.3649 28.9254C53.7512 28.9254 54.0586 28.9017 54.2794 28.8465C54.5001 28.7913 54.6657 28.7204 54.7682 28.6258C54.8707 28.5312 54.9258 28.4129 54.9258 28.271C54.9258 28.0581 54.8076 27.8847 54.5632 27.7586C54.3267 27.6324 54.0035 27.5299 53.6093 27.4432C53.2151 27.3565 52.7815 27.2698 52.3163 27.1673C51.8512 27.0727 51.3782 26.9387 50.9052 26.781C50.4321 26.6233 49.9985 26.4104 49.6043 26.1503C49.2102 25.8901 48.8948 25.5432 48.6504 25.1175C48.4139 24.6918 48.2878 24.1557 48.2878 23.5171C48.2878 22.7761 48.4927 22.0981 48.9106 21.491C49.3284 20.884 49.9512 20.3952 50.779 20.0246C51.6068 19.662 52.6396 19.4807 53.8694 19.4807C54.6815 19.4807 55.4777 19.5674 56.2661 19.7408C57.0544 19.9143 57.764 20.1744 58.3868 20.5292L57.1727 23.4541C56.5814 23.1545 56.0059 22.9337 55.4541 22.7839C54.9022 22.6342 54.3582 22.5632 53.8379 22.5632C53.4516 22.5632 53.1441 22.5947 52.9155 22.6657C52.6869 22.7366 52.5213 22.8234 52.4267 22.9416C52.3321 23.052 52.2848 23.1781 52.2848 23.32C52.2848 23.525 52.4031 23.6906 52.6475 23.8088C52.884 23.9271 53.2072 24.0296 53.6014 24.1084C53.9956 24.1872 54.4292 24.274 54.9022 24.3686C55.3752 24.4632 55.8482 24.5893 56.3134 24.747C56.7785 24.9047 57.2121 25.1175 57.6063 25.3777C58.0005 25.6378 58.3158 25.9847 58.5602 26.4026C58.7968 26.8283 58.9229 27.3486 58.9229 27.9793C58.9229 28.7125 58.7179 29.3826 58.3001 29.9897C57.8822 30.5967 57.2673 31.0934 56.4395 31.4639C55.6117 31.8108 54.579 32 53.3333 32Z" fill="#C12126"/>
<path d="M62.5415 31.7241V22.8785H59.0333V19.7487H70.0941V22.8785H66.5859V31.7319H62.5415V31.7241Z" fill="#C12126"/>
<path d="M77.2683 32C76.2828 32 75.3841 31.8423 74.5563 31.5349C73.7285 31.2274 73.0111 30.7938 72.404 30.2262C71.797 29.6585 71.3319 28.9963 70.9929 28.2316C70.6539 27.4669 70.4883 26.6312 70.4883 25.7324C70.4883 24.8179 70.6539 23.9823 70.9929 23.2254C71.3319 22.4686 71.797 21.8063 72.404 21.2387C73.0111 20.6711 73.7285 20.2375 74.5563 19.93C75.3841 19.6226 76.2828 19.4649 77.2525 19.4649C78.2301 19.4649 79.1367 19.6226 79.9566 19.93C80.7765 20.2375 81.494 20.6711 82.0931 21.2387C82.7002 21.8063 83.1653 22.4686 83.5043 23.2254C83.8433 23.9823 84.0089 24.8179 84.0089 25.7324C84.0089 26.6312 83.8433 27.4669 83.5043 28.2316C83.1653 28.9963 82.7002 29.6585 82.0931 30.2262C81.4861 30.7938 80.7765 31.2274 79.9566 31.5349C79.1288 31.8423 78.238 32 77.2683 32ZM77.2525 28.7283C77.6309 28.7283 77.9778 28.6573 78.3089 28.5233C78.6322 28.3893 78.916 28.1922 79.1683 27.932C79.4127 27.6718 79.6019 27.3644 79.7438 26.9938C79.8778 26.6233 79.9488 26.2055 79.9488 25.7324C79.9488 25.2673 79.8778 24.8416 79.7438 24.471C79.6098 24.1005 79.4127 23.7852 79.1683 23.5329C78.9239 23.2727 78.6401 23.0756 78.3089 22.9416C77.9857 22.8076 77.6309 22.7366 77.2525 22.7366C76.8741 22.7366 76.5272 22.8076 76.1961 22.9416C75.8729 23.0756 75.5891 23.2727 75.3368 23.5329C75.0924 23.793 74.9032 24.1005 74.7613 24.471C74.6272 24.8416 74.5563 25.2594 74.5563 25.7324C74.5563 26.1976 74.6272 26.6233 74.7613 26.9938C74.8953 27.3644 75.0924 27.6797 75.3368 27.932C75.5812 28.1922 75.865 28.3893 76.1961 28.5233C76.5193 28.6573 76.8741 28.7283 77.2525 28.7283Z" fill="#C12126"/>
<path d="M7.04805 5.64474C3.02736 6.5356 0.0157776 10.1227 0.0157776 14.4193C0.0157776 15.8069 1.14315 16.9421 2.53857 16.9421H21.5699V2.53068C14.5455 2.54644 8.66421 3.87091 7.04805 5.64474ZM8.25426 11.5654C7.96256 11.8019 7.61568 11.8492 7.46589 11.6679C7.3161 11.4866 7.43435 11.1555 7.72605 10.9189C8.01775 10.6824 8.36463 10.6351 8.51442 10.8165C8.65633 10.9978 8.53807 11.3289 8.25426 11.5654ZM8.90861 9.87041C8.58538 10.1306 8.20696 10.1936 8.04928 10.0044C7.89949 9.81523 8.02563 9.45258 8.34886 9.19241C8.6721 8.93225 9.05051 8.86918 9.20819 9.05839C9.36586 9.23972 9.23184 9.61025 8.90861 9.87041ZM10.3907 10.8795C10.0754 11.1397 9.69698 11.187 9.53931 10.9978C9.38163 10.8007 9.50777 10.438 9.82312 10.1858C10.1385 9.9256 10.5248 9.8783 10.6824 10.0675C10.8401 10.2567 10.6982 10.6194 10.3907 10.8795ZM11.6521 8.67997C11.2264 9.02686 10.7061 9.09781 10.4932 8.82976C10.2804 8.56172 10.4459 8.07293 10.8717 7.72604C11.2974 7.37916 11.8177 7.30821 12.0306 7.57625C12.2434 7.83642 12.0779 8.33309 11.6521 8.67997ZM13.6152 9.492C13.0791 9.83888 12.4799 9.86253 12.275 9.54718C12.07 9.23183 12.3301 8.68786 12.8662 8.34097C13.4023 7.99409 14.0015 7.97044 14.2065 8.28579C14.4114 8.60114 14.1434 9.14511 13.6152 9.492Z" fill="#FCC60E"/>
<path d="M1.34023 17.5728C0.599162 17.5728 0 18.172 0 18.913V18.9367C0 19.6778 0.599162 20.2769 1.34023 20.2769H21.5698V17.5728H1.34023Z" fill="#3A7E44"/>
<path d="M1.34811 20.9076C0.60704 20.9076 0.00787735 21.5068 0.00787735 22.2478V22.2715C0.00787735 23.0126 0.60704 23.6117 1.34811 23.6117H21.562V20.9076H1.34811Z" fill="#C12126"/>
<path d="M21.5698 24.2424H1.17467C0.536086 24.2424 0.00787735 24.7627 0.00787735 25.4092V25.4802C0.00787735 28.9096 2.79083 31.6925 6.22025 31.6925H21.562V31.6452L21.5698 24.2424Z" fill="#FCC60E"/>
</svg>
