<svg width="24" height="25" viewBox="0 0 24 25" fill="none" xmlns="http://www.w3.org/2000/svg">
<path fill-rule="evenodd" clip-rule="evenodd" d="M1.5 4.51611C1.5 2.85926 2.84315 1.51611 4.5 1.51611H5.87163C6.732 1.51611 7.48197 2.10167 7.69064 2.93636L8.79644 7.35954C8.97941 8.09141 8.70594 8.86166 8.10242 9.3143L6.8088 10.2845C6.67447 10.3853 6.64527 10.5328 6.683 10.6358C7.81851 13.7356 10.2805 16.1976 13.3803 17.3331C13.4833 17.3708 13.6309 17.3416 13.7316 17.2073L14.7018 15.9137C15.1545 15.3102 15.9247 15.0367 16.6566 15.2197L21.0798 16.3255C21.9144 16.5341 22.5 17.2841 22.5 18.1445V19.5161C22.5 21.173 21.1569 22.5161 19.5 22.5161H17.25C8.55151 22.5161 1.5 15.4646 1.5 6.76611V4.51611Z" fill="black"/>
</svg>
